<svg id="Layer_1" data-name="Layer 1" xmlns="http://www.w3.org/2000/svg" viewBox="0 0 402.52 230"><defs><style>.cls-1,.cls-2,.cls-3{fill:#fff;}.cls-2,.cls-3,.cls-4,.cls-5{isolation:isolate;}.cls-2{font-size:200px;}.cls-2,.cls-3,.cls-5{font-family:Times New Roman;}.cls-3{font-size:80px;}.cls-5{font-size:19.61px;fill:#ff1493;stroke:#820b4f;stroke-miterlimit:10;stroke-width:0.5px;font-weight:700;}</style></defs><title>logo</title><path class="cls-1" d="M200.62,119.34c0.45,0.7.78,0.09,0.94,0.12C200.62,118.43,200.5,119.47,200.62,119.34Z" transform="translate(0.1 0.02)"/><polygon class="cls-1" points="191.46 109.16 191.81 109.21 190.1 107.95 191.46 109.16"/><path class="cls-1" d="M183.78,98.81c-0.15,1.61,2.89,3.64,3.93,5.71V105l1.3,0.32C187.29,103.13,184.69,100.56,183.78,98.81Z" transform="translate(0.1 0.02)"/><path class="cls-1" d="M181.6,91.93c-0.09.59-1.16-1,.84,1.36a2.76,2.76,0,0,1-.09-0.3C182.18,92.78,182,92.47,181.6,91.93Z" transform="translate(0.1 0.02)"/><path class="cls-1" d="M182.39,93c0.82,1.07-.24-0.92,0,0h0Z" transform="translate(0.1 0.02)"/><path class="cls-1" d="M178.47,88.12l1.35,1.21c0-.44-0.91-1.75-0.42-1.39C178.16,86.59,178.18,87.06,178.47,88.12Z" transform="translate(0.1 0.02)"/><path class="cls-1" d="M176.84,87.22l0.67,0.65A0.85,0.85,0,0,0,176.84,87.22Z" transform="translate(0.1 0.02)"/><path class="cls-1" d="M178.94,89.25l-1.42-1.38c0,0.31-.25.54,0.63,0.65C177.79,88.58,178.26,88.71,178.94,89.25Z" transform="translate(0.1 0.02)"/><path class="cls-1" d="M179.46,90.24c0.4,0.94,1,2.07-.31.85C181.28,93.74,181.59,92.89,179.46,90.24Z" transform="translate(0.1 0.02)"/><path class="cls-1" d="M182.5,98.94L183,100.2l1,0.72C183.52,100.55,182.72,98.67,182.5,98.94Z" transform="translate(0.1 0.02)"/><path class="cls-1" d="M172.39,78.86c-0.25,0-.14.84-0.29,1.12l1,0.9C172.78,80.25,172.14,79.14,172.39,78.86Z" transform="translate(0.1 0.02)"/><path class="cls-1" d="M172.07,80l-1.48-1.35C171.59,80.06,171.93,80.22,172.07,80Z" transform="translate(0.1 0.02)"/><polygon class="cls-1" points="175.8 87.69 178.37 89.8 175.42 87.19 175.8 87.69"/><polygon class="cls-1" points="168.04 72.82 169.13 73.4 167.31 72.28 168.04 72.82"/><path class="cls-1" d="M164.92,68.84c0.84,0.41-.07-1.35.66-0.81a13.75,13.75,0,0,0-2.74-2.39A9.32,9.32,0,0,1,164.92,68.84Z" transform="translate(0.1 0.02)"/><path class="cls-1" d="M161.39,64.53a15.24,15.24,0,0,0,1.43,1.12A7.83,7.83,0,0,0,161.39,64.53Z" transform="translate(0.1 0.02)"/><path class="cls-1" d="M168.7,75.87a2.32,2.32,0,0,0-.39-1.63l-0.06,1Z" transform="translate(0.1 0.02)"/><path class="cls-1" d="M168.25,75.27h0l-1-1.37Z" transform="translate(0.1 0.02)"/><path class="cls-1" d="M168.81,76.06l-0.11-.16A0.12,0.12,0,0,0,168.81,76.06Z" transform="translate(0.1 0.02)"/><path class="cls-1" d="M173.11,83.17c-1-.72-2.71-2.43-1.77-0.23C172.19,83.35,171.65,82.06,173.11,83.17Z" transform="translate(0.1 0.02)"/><path class="cls-1" d="M168.73,77.27L169.85,79c0.11-.13.09-0.58,0.57-0.23Z" transform="translate(0.1 0.02)"/><polygon class="cls-1" points="168.07 76.59 168.84 77.29 168.42 76.64 168.07 76.59"/><path class="cls-1" d="M163.05,67.77A11.85,11.85,0,0,1,161,65.56a34.4,34.4,0,0,0,2,3C163.23,68.58,163.82,68.79,163.05,67.77Z" transform="translate(0.1 0.02)"/><path class="cls-1" d="M165.53,71.45l-0.15-.14C165.39,71.44,165.45,71.53,165.53,71.45Z" transform="translate(0.1 0.02)"/><path class="cls-1" d="M154.5,56.72v0.21h0.11Z" transform="translate(0.1 0.02)"/><path class="cls-1" d="M163,68.8a3.51,3.51,0,0,0,1.34,1.43c-0.45-.5-0.9-1.05-1.36-1.66C162.85,68.56,162.79,68.59,163,68.8Z" transform="translate(0.1 0.02)"/><path class="cls-1" d="M159.39,62.24A11.57,11.57,0,0,0,160,63.7,2.83,2.83,0,0,0,159.39,62.24Z" transform="translate(0.1 0.02)"/><path class="cls-1" d="M165.39,71l0.1,0.09C165.39,70.73,165.39,70.8,165.39,71Z" transform="translate(0.1 0.02)"/><path class="cls-1" d="M165.39,71a6.86,6.86,0,0,0-1-.73,12.84,12.84,0,0,0,1.06,1.08A1.33,1.33,0,0,1,165.39,71Z" transform="translate(0.1 0.02)"/><path class="cls-1" d="M149.22,56.47c0.57-.22,2.41,1.35,3.1,3.37,1.55,1.35,2.34-.86,2.19-2.92-0.25.1-.44,0.25-1.94-1.21,0.17,0.77,2.1,4.14.63,3.05-1.86-2-1.16-1.93-1.69-3.18,0.07,1.35-2.93-2.16-3.45-1l1.73,1.7C149.68,56.39,148.95,55.85,149.22,56.47Z" transform="translate(0.1 0.02)"/><path class="cls-1" d="M156.79,60.13l0.56,0.64a11.52,11.52,0,0,1-1.09-2.84c-1.07-1-1.42-1.07-1.64-1L157,60.35Z" transform="translate(0.1 0.02)"/><path class="cls-1" d="M159.61,63.84c-0.91-.15-2.34-1.63-2.17-0.21,1.51,2,1.47,1.09,2.57,2.12-2.51-3.14,1,.72-0.45-1.84A21.61,21.61,0,0,1,161,65.56c-0.37-.63-0.7-1.25-1-1.85v0.1h0v0.08l-0.06-.06a0.61,0.61,0,0,1-.3,0c-0.58-1,0-.25.3,0H160l-2.67-3A28.55,28.55,0,0,0,159.61,63.84Z" transform="translate(0.1 0.02)"/><path class="cls-1" d="M168.95,82.06a0.16,0.16,0,0,1,0-.19C168.78,81.68,168.68,81.63,168.95,82.06Z" transform="translate(0.1 0.02)"/><path class="cls-1" d="M168.29,80.47a2.57,2.57,0,0,1,1.11,1c0.33,0.78-.25.18-0.4,0.34,0.48,0.36,1.56,1.34.75-.29l-0.24-.18c-0.78-1.44-1.36-3.59-1.12-3.42A5.44,5.44,0,0,0,168.29,80.47Z" transform="translate(0.1 0.02)"/><path class="cls-1" d="M163.75,72.16l-2.24-2.51,0.56,1.71,0.22-.27C163.31,72.7,163.39,72.12,163.75,72.16Z" transform="translate(0.1 0.02)"/><polygon class="cls-1" points="154.64 56.24 155.45 56.19 153.53 55.2 154.64 56.24"/><polygon class="cls-1" points="151.99 52.77 152.57 52.55 151.6 51.84 151.99 52.77"/><path class="cls-1" d="M33.44,123.88l0.72,0.69A6.52,6.52,0,0,0,33.44,123.88Z" transform="translate(0.1 0.02)"/><path class="cls-1" d="M29.25,118.11H28.91C29.24,118.32,29.39,118.35,29.25,118.11Z" transform="translate(0.1 0.02)"/><path class="cls-1" d="M73.39,30.56c-1.48.4-3.29,0.66-2.75,1.09l0.74,0.26A7.23,7.23,0,0,1,73.39,30.56Z" transform="translate(0.1 0.02)"/><path class="cls-1" d="M16.62,77.06L17.08,77l0.41-1.08Z" transform="translate(0.1 0.02)"/><path class="cls-1" d="M17.39,79.83l-1.77.78A11.42,11.42,0,0,0,17.39,79.83Z" transform="translate(0.1 0.02)"/><path class="cls-1" d="M57.05,154.86l1.21,0.53C57.2,154,57.39,154.78,57.05,154.86Z" transform="translate(0.1 0.02)"/><path class="cls-1" d="M125.29,16.94a18.45,18.45,0,0,0-1.51-2.72C124.39,15.64,124.62,16.94,125.29,16.94Z" transform="translate(0.1 0.02)"/><path class="cls-1" d="M26.22,125.71c0.45,0.42.71,0.54,0.82,0.44C26.58,125.72,26.27,125.51,26.22,125.71Z" transform="translate(0.1 0.02)"/><path class="cls-1" d="M121.65,11.34c0.08,0.21.18,0.41,0.26,0.62a17.69,17.69,0,0,1,1.85,2.26A6,6,0,0,0,121.65,11.34Z" transform="translate(0.1 0.02)"/><path class="cls-1" d="M153.06,150.48a1.14,1.14,0,0,0,.3-0.13A0.44,0.44,0,0,0,153.06,150.48Z" transform="translate(0.1 0.02)"/><path class="cls-1" d="M190.11,131.42a14.26,14.26,0,0,1-1.33,1A7.57,7.57,0,0,0,190.11,131.42Z" transform="translate(0.1 0.02)"/><path class="cls-1" d="M141.74,38.46c0.58,0.72.14,0.08,0,0h0Z" transform="translate(0.1 0.02)"/><path class="cls-1" d="M142.33,43.61a0.49,0.49,0,0,0-.47-0.11A0.63,0.63,0,0,1,142.33,43.61Z" transform="translate(0.1 0.02)"/><path class="cls-1" d="M113,6.4V6.33A0.56,0.56,0,1,1,113,6.4Z" transform="translate(0.1 0.02)"/><path class="cls-1" d="M142.33,39.76a10.16,10.16,0,0,0-.54-1.07A10.52,10.52,0,0,0,142.33,39.76Z" transform="translate(0.1 0.02)"/><path class="cls-1" d="M142.46,39.42l0.43,0.69C143.05,40.14,143,40.06,142.46,39.42Z" transform="translate(0.1 0.02)"/><path class="cls-1" d="M140.95,37.44a12.56,12.56,0,0,1,.83,1.25c-0.07-.17-0.09-0.26,0-0.23Z" transform="translate(0.1 0.02)"/><path class="cls-1" d="M93.1,196.69l0.2-.07C93.89,195.85,93.58,196.13,93.1,196.69Z" transform="translate(0.1 0.02)"/><path class="cls-1" d="M58,50.24a0.1,0.1,0,0,1,.07-0.09l-0.12.06Z" transform="translate(0.1 0.02)"/><path class="cls-1" d="M55.6,52.6a4.18,4.18,0,0,1,2.33-2.38l-2-.86Z" transform="translate(0.1 0.02)"/><path class="cls-1" d="M43.7,137.53l-0.91-2.22c2.44,1.7,3.38,3.53,2.75,1.28-1.84.94-5.53-7.18-7.36-6.23l-0.56-1.49c0.24,0.37.38,0.35,0.62,0.71-1-3-2.5-.92-4.55-4.19-0.67-1.17-1-2.1-.25-1.51l-2.18-2.11c-0.48-.72-0.07-0.76.41,0l-2.83-3.58h0.07a24.07,24.07,0,0,1-2.52-1.73c-0.45-1.11.52,0.34,0.55,0l-1.89-1.74c-0.18-1.14,1.47.24,2.44,1.69,0.24-3.1-1.65-1.38-3.71-6.19L25.4,112c0-1.92-1.42-3.17-2.43-5.77,0.08,0.74,1.73,5.42-.3,3.52a6.73,6.73,0,0,0-2.08-2.53c0.58-.44-0.42-1.5-1.52-2.93l0.85-.47c-1.38-1.41-1.68-1-2.71-1.67-1.21-1.81-.88-2.61-0.68-3.4-1.94-2.9.46,2.64-2.12-.57-1.42-2.55-2.94-4-5.46-6.41-0.93-1.83.68-.06,0.47-0.81l-0.84-.5-0.31-.18H7.9C7.79,90.09,8,90,8.16,90a1.18,1.18,0,0,0-.84-0.09,1.38,1.38,0,0,1-1.18-.59,1.12,1.12,0,0,1-.81-1.26c0.69-.25,1.38-0.47,1.86-0.71a1.59,1.59,0,0,0,1-1c0.49,0,.23.56,0.59,0.76L8.86,87A0.56,0.56,0,0,1,9,86.79l0.42-.46,0.68-.73,0.94-1c0.52-.6.95-1.18,2-2.59l2.65-1.17c-2.1.65-.47-1.61,1-3.55-0.8.16-1.49,0.28-1.91,0.42l2.69-2.61c0.45-.14.35,0.35,0.1,1,0.16-.21.3-0.42,0.41-0.59,1.28-.5,1.05.35,0.6,1.35-0.48.12-1,.22-1.43,0.31-0.39,1-.7,2-0.22,2.38a4.52,4.52,0,0,1,.83-0.93c-0.1.27-.14,0.47,0,0.49a2.23,2.23,0,0,0,.69-1l1.31,0.36L19.66,78,24,75.67c2.16-2.93,3.66-6,7.85-9.61-0.64,1.44.52,1.21,1,2-1.8.1-3.2,2.87-5.62,4.4,1.26-.8,1.26-0.25,1,0.1l3.58-3.74c0.36,0.68,1.21-.18,2.47-0.72-1.7-.61,2.47-3.06,3.87-4.66,0.4,0.33.31,1-1.81,2.44,2.92-.74,1.86-3.56,4.64-4.41a1.62,1.62,0,0,0-.85.86c0.9-1.22,4-3,3.54-2.17l-0.49.37c3.41-2.29,10.07-7.38,9.81-8.78a5.64,5.64,0,0,1,.43,1.91l3.36-7.79c0.13,1.26,3.67,1.9,1.29,4.42a11,11,0,0,0,3.39-2.55c-0.63.27-2.28-.29-1.6-0.91,2.74-.5,1.78-0.5,4.88-1.49-0.94.4-1.07-1.64,0.24-2.53,0,0.35,1.11,1.29.75,1.77l2.17-3.69c-0.61.83,0.71,1.25,1.7,1.12-0.52,0,2.76-2,3.5-2.74l-1.57.67c3.73-2.42,2.13-4.51,5.73-7-0.22.6,0.21,2.51,2.14,1.35,0.31-1.3,1.2-6,3.94-8.88H84.2l2.07-2.22a62.69,62.69,0,0,1-5,10c1.57-.67.72,0.2,2.69-1.31,1-.15-0.68,1.37-1.25,1.82l4.84-3.19c-0.8-.66,3-3.44,2.29-4l-4.45,4.36c-0.8-.66,1.24-4.46,4.65-6.74,1.08-.29.43,1.91,0.7,2.13a10.75,10.75,0,0,1,3.19-2.86l-1.08,1.46c2.06-1,2.21-3.28,5-4.13,0.8-.51,3-0.63,2.83-1.21-1.93,0-4.28-2.7-4-4a47.5,47.5,0,0,1,5.87-2.24c1.79-.2-0.61,3.12.92,3a2.48,2.48,0,0,1,.6-1.34c0.94-.4.17,0.93,1.84-0.45-0.31-1,3.59-2.53.31-1.3A7.14,7.14,0,0,1,108,11.86c0.27-.15.55-0.29,0.89-0.5a9.79,9.79,0,0,0,1-.65c-0.37-.14-0.37-0.84.17-1.87a13.31,13.31,0,0,1,2.59-3.31,0.51,0.51,0,0,0,.24.63L113,6.43c1.25,1.79,2.14,3.23,2.93,4.52s1.7,2.74,2.89,4.36c0,0.45.93,2.2,0.09,1.79a6.29,6.29,0,0,1,1.84,1.58c0.72,2.47-1.76-2.16-1.52,0,0.57-.23,2.57,2.11,3.92,3.32,0.42-1-2.29-3.41-3.64-4.62,1-.76,3.92,1,6.89,4,2.24,2.52.2,1.66,0.69,2,3.55,5.21,5,3,7.32,7.78,0.58,2.15-1.24,1-1.43,1.74-1.86-2-2.07-3.69-3.2-5.16l1,2.06A9,9,0,0,1,128.37,27c0.45,1.83,6.19,8.67,8.53,13,0.73,0.54,1.84,1.57,1.68.81l-1-1.17c-0.31-1.53,2.44,1.8,1.53.05a19.68,19.68,0,0,1,5,5.39l-0.42,1c0.18-.21-0.68-1.86-1.39-2.35,1,0.73,1.64,4.33,3.39,4.69l-0.69-2c1.6,1.4,3.9,2.88,5.19,5.13,0-1.48-.44-0.42-0.66-2.52-0.13,2.06-3.86-5.34-3.47-2.47-0.12-2.24-1.5-2.93-2.11-5.53-0.2.24,0,1-1.11-.79a2.27,2.27,0,0,1-.5-0.22l-0.07-.13V40h0a2.77,2.77,0,0,1,.28,1.16c-1.2-.45-3.21-3.24-4.19-4-0.64-1.12.6,0.23,0.44-.53l-1.46-1.08c0.44-.54-1.12-3.41,1-1.21l-1.48-2.26A13.82,13.82,0,0,0,134,27.75c-0.64-1.12-2.52-2.17-1.43-1.58L129.71,23l0.11-.13c-2.42-3.44-6-6.32-7.9-10.92a20.48,20.48,0,0,1-1.53-1.69c-0.27-.32-0.55-0.68-0.83-1.08l-0.51-.72L118.28,7.3V6.23c-1.2-1.42-2.89-4.14-4.35-6.25a12.4,12.4,0,0,0-2.75,2.28,9,9,0,0,0-3.4,1.6c-0.74.48-1.55,1-2.39,1.64-0.47.34-.92,0.68-1.39,1-1.86,1.46-3.75,3.14-5.12,4l0.35,0.68a53.21,53.21,0,0,0-5.4,4.56l0.53,0.44c-1.57,1.84-5.17,3.2-8.13,5.47a2.78,2.78,0,0,1,1.49-1.13c-4.49,1.41-6.92,6.45-10.83,8a4.83,4.83,0,0,1-2,1.44,0.94,0.94,0,0,0,.18-0.18L74.73,30c-0.43.17-.88,0.33-1.34,0.54a6.63,6.63,0,0,0,1.16-.41A26.44,26.44,0,0,0,72.2,32.2l-0.82-.29-0.2.17c-1.07.46-.53,0.81,0.28,0.89a8.41,8.41,0,0,0-1,1.25c-1.43-.39-2.21,2.11-4,1.85-0.27.95-4.41,3.8-4.15,5.2-0.13-.11-0.45,0,0-0.35a9.22,9.22,0,0,0-3,2.26l-1-.42-1.53,2.66c-1.71.56-2.47,0.72-1.52-.86-2.66,3.3-2.43,2.3-4.6,5.22l-0.21-.58c-1,.75-2.12,2.57-3,2.62-2.91.74-11.19,8-17.57,11.41,2.15,0.59-3.14,1.33-2.57,2.59-0.58-.09-1.52.31-0.8-0.66-2.7,2.49-4.8,2.71-6.16,5.13-0.58-.09.27-1-0.17-0.93a2.38,2.38,0,0,1-1.17,1c-0.44,0,.22-0.6.58-1.08-3,2.26-2.51,3.51-2,4.64-1.86.66-2.57,1.28-3.2,2.72-0.76.07-1.89,0.39-.1-1.09-1.08.72-6.75,4.25-6.29,5.1A4.46,4.46,0,0,0,6.28,82L3.13,84.17c-0.87.62-1.73,1.25-3.23,2.41L0.95,86A1.16,1.16,0,0,1,.4,87.14C1.08,88,1.4,89,2.64,90.52H2.47c0.39,0.71.73,1.3,1,1.78L3.88,93l0.3,0.45a5.27,5.27,0,0,0,.72.85,10.72,10.72,0,0,1,2,3.2l0.41-.66c1.54-.52,2,4.28,4.28,6.37l-0.2-1.1c1.41,1,1,5,1.88,6.44,0.11,0.37-.51-0.33-0.89-0.68,1.85,4.05,1.09-.1,3.19,2.39-0.05.78-1.5,0.14-.28,2,0.31,1.12,5.08,4.13,6.07,7.12-0.07-.76-0.14-1.52,1-0.48,1.48,1.78,2.51,5.92,4.74,6.87a0.53,0.53,0,0,1,0,.52c1.3,1.24,3.83,4.32,5,4.78-1,2.79,7.48,8.14,5.61,9.47L41,144.8H40.76c1.94,2.89,3.11,3.56,4.27,4.22,0.35,0.74-.17.39-0.31,0.41,2.63,4.37,3,4.72,6.45,7.47l-0.34.8c1,0.67,3.41,6.61,7.06,10.11a0.77,0.77,0,0,1-.59-0.24c4,4,6.28,12,9.68,12.09l2.73,2.59c-2.66-4,1.37-.12.57-2,1.24,1.42,2.22,4.4.74,2.62l-0.11-.37c-1.64.15,3.12,5.09,2.27,5.55,2.12,2.84,4.12,5.72,6.07,8.6l3.09,4.56,4.46,6.43,4.11-2.9,3.76-2.7-0.73-.14c-0.19,0-.36-0.08-0.52-0.09H93.14L95.71,200c0.8-.27,1.38,0-0.41,1.31,1.3-.18,2.66-2.6,2.57-2.83,3.73-2.19-.6,2,0.48,1.27l1.39-1.13-0.4.14c0.9-1.22.73-1.68,2.88-3.2,1.48-.81,1.09,0,1.65-0.32,0,0.06.24,0,.83-0.57l3.18-2.22-1.76.22c1.13-1.36,3-2.12.94-1.85,3-.33,12-8.12,13.55-8.7a27,27,0,0,1,5.9-5c-0.7.29-1.63-.24,0.49-1.64,0.44,2.17,4.26-2,6.77-2.1-2,.31,5.67-4.46,2.55-3.86,1.8-1.12.55,0.53,2.12,0,3.6-3.61,9.25-6.17,14.12-10.07-0.08-.27-1.16,0-0.31-1.09l3.43-.88c0.91-.83,0-1.9,2.37-2.49-0.39,0-1,0-.35-0.54,10.6-6.19,19.48-15.61,30.89-21-1.66.58-.78-0.12,0.24-0.9-0.74.39-.37-0.54-0.71-0.73l4.77-2.27c0.17-1.36,4.44-3.35,4.32-4.43L196,126.23c1.1-2.2-3.94-.2-4.53-1.54-1.22,2.47-6.32,2.3-8.47,6.15-0.89.29,0.34-.82-0.24-0.81-0.46,1.1-1.37,1.93-3.37,3.06l0.12-.28c-5.07,3.91-7.64,5-13.67,9l0.85,0.26a9.41,9.41,0,0,1-2.38,1.14c-0.79,1.92,3.53-2.52,2.93-.61-2.51,0-8.79,6.43-10.88,5.93-1.92,1.4,1,.25-0.87,1.65h-0.77l-0.14.82c-1.31.85-2.27,0.86-2.54,0.59a9.94,9.94,0,0,0,1.11-1c-1.94.77-4.48,3.52-5.14,3.79l2-1.13c-5,4.17-11.71,8.39-16.22,12.83h0.58c-3.49,3.33-3.31,2-7.37,5.31l0.11-.18a12.36,12.36,0,0,1-2.86,2.68c0.84-1.1-2.46.86-1.32-.52-3.79,3.61-1.76,1.94-3.78,5h-1a7.45,7.45,0,0,1-2.59,3c1.45-1.66-1.85.31-.28-1.63-5.16,2.28-5.86,5.83-9,5.89-1.13,2.74,4.35-2.13,3.4-1,1.25-.3-1,2.16-2.48,3.06s-3.58.18-7.12,2.83c0.36-.25.31-0.37,0.67-0.62-1.57.66-2.3,2.35-4.31,3-0.37,1.42-2.16,1.52-1.72,2.67l3.11-2.62c-1.67,1.61-2.59,4-6,5.71a8.32,8.32,0,0,1,1.34-1.89,3.86,3.86,0,0,0-1.35.91,2.91,2.91,0,0,1-1.22.81,0.74,0.74,0,0,1,0-.41A1,1,0,0,1,91,197.6a13.29,13.29,0,0,1,1.49-1.26,15.24,15.24,0,0,0,3.34-3c-1.26.3-3.25,3.45-3,1.68-0.23,1.19-1.14,1.79-2.2,2.44a2.92,2.92,0,0,0-1.67,1.69v-0.91a4.87,4.87,0,0,1-.79,1.11l-0.08-.1,0.11-.11a10.93,10.93,0,0,0,.52-1.35,1.78,1.78,0,0,1-.41.59,2.88,2.88,0,0,1-.46-1.21,0.88,0.88,0,0,0-.41-0.8,0.85,0.85,0,0,1,.2,1.09,1,1,0,0,0-.31,1.09,2.76,2.76,0,0,1-1.09-1.28,5,5,0,0,1-.43-1.68c-0.13-1.09-.25-2.3-2.38-4.91,0.62,0.67,1.68,3,.57,2.06a15.11,15.11,0,0,1-1.58-3.5c-2.76-3.5-.19,1-1.66-0.28-0.2-1.74-1.58-1.55-3-3l0.58-.44c-2.63-4.37-2-.19-4.27-4.21l2,1-1.62-1.77,1-.09a14.2,14.2,0,0,1-3.7-4.66c-0.06.78-1.25,0.51-2.6-1.29-0.56-1.49,1.06.29-.91-2.22a2.57,2.57,0,0,1,2,2.12c0.27,0,.79.3,1.06,0.28-0.58-1.62-2.37-3.41-3.06-4.34a5.34,5.34,0,0,1,.6,1.11l-3.54-3.13c-0.21-.75.31-0.41,0.82-0.08a25.69,25.69,0,0,1-2.13-2.11c0.68-.06,1.12-0.49,2.5.92l-3.13-3.16c0-.39-0.77-2.24-0.26-1.9-1.17-2.17-4.46-4.15-6-7a2.93,2.93,0,0,1-1-.78c-1.69-2.53-2.71-5.13-5.49-7.56l-0.36-2.27c-1.86-2.13.57,3-2.54-.54-2.24-2.48,0-1.53-.47-2.65-1.41-1-4-2.7-5.1-5.67A21.57,21.57,0,0,1,43.7,137.53Zm-21-27.79c0.52,0.45,1.7,1.26,1.64,1.91-1.11-.12-1.14-0.84-1.63-1.91h0ZM21.56,75.15a3.23,3.23,0,0,1-1.83,1.15,6.7,6.7,0,0,1,1.84-1.15h0Zm113.7-44.5h-0.07c-0.65-1.42-.42-0.92.08,0h0Zm1.6,2.7c0.27,0.19.34,0.12,0.34-.05a3.37,3.37,0,0,1-1.13-1.3,1.84,1.84,0,0,0,.8,1.35h0ZM103.94,194.77l-0.6.21C104.32,194,104.12,194.38,103.94,194.77Z" transform="translate(0.1 0.02)"/><path class="cls-1" d="M17.32,79.5a0.65,0.65,0,0,1-.47-0.15C16.71,79.61,16.79,79.73,17.32,79.5Z" transform="translate(0.1 0.02)"/><path class="cls-1" d="M56.83,154.76l0.06,0.09a0.3,0.3,0,0,0,.17,0Z" transform="translate(0.1 0.02)"/><path class="cls-1" d="M104.76,15.8a3.63,3.63,0,0,1-1.22.43C103.61,16.4,103.94,16.34,104.76,15.8Z" transform="translate(0.1 0.02)"/><path class="cls-1" d="M147.67,46l-1.34-1.5a5.06,5.06,0,0,1,.88,1.59C147.32,45.93,147.29,45.48,147.67,46Z" transform="translate(0.1 0.02)"/><path class="cls-1" d="M154.39,62.63c0.24,0.18.38,0.49,0.62,0.67l0.22-.26C154.39,62.06,153.7,61.51,154.39,62.63Z" transform="translate(0.1 0.02)"/><path class="cls-1" d="M146.83,48.89c-0.4.49,0.51,1.38,1.43,2.44l-0.15-.2C149.05,51,147.93,49.92,146.83,48.89Z" transform="translate(0.1 0.02)"/><path class="cls-1" d="M148.47,51.58a9.73,9.73,0,0,1,.78,1C149.62,52.55,149,52.15,148.47,51.58Z" transform="translate(0.1 0.02)"/><path class="cls-1" d="M139.54,36.31c0.27,0.63.87-.12,0.9,0.33C141.5,36.78,137.06,33.62,139.54,36.31Z" transform="translate(0.1 0.02)"/><polygon class="cls-1" points="145.99 51.01 146.29 50.16 145.34 49.89 145.99 51.01"/><path class="cls-1" d="M139.77,41.74l1.16,1.93c0.08-.1.31,0.08,0.56,0.33C140.7,42.88,139.92,41.57,139.77,41.74Z" transform="translate(0.1 0.02)"/><path class="cls-1" d="M141.49,44a6.76,6.76,0,0,0,1.17,1.38A15.36,15.36,0,0,0,141.49,44Z" transform="translate(0.1 0.02)"/><polygon class="cls-1" points="143.99 48.68 143.73 48.05 142.83 46.74 143.99 48.68"/><path class="cls-1" d="M125.63,22.24L124,20.4c-0.36,0-.09.58,0.53,1.26C125,22.06,125.65,22.69,125.63,22.24Z" transform="translate(0.1 0.02)"/><path class="cls-1" d="M128.39,29.42a2.3,2.3,0,0,1-.18-1.21l-0.79.49Z" transform="translate(0.1 0.02)"/><path class="cls-1" d="M123.95,23.8c-0.35,0-2.7-2.42-.82,0C123.49,23.89,125.11,25.74,123.95,23.8Z" transform="translate(0.1 0.02)"/><polygon class="cls-1" points="100.3 16 100.8 15.62 99.82 14.44 100.3 16"/><path class="cls-1" d="M76.18,38.15c2.55-1.42,0-1.17,2.38-2.35,0.33-.69-1.95,1-1.57.3C75.81,37.45,74.94,37.82,76.18,38.15Z" transform="translate(0.1 0.02)"/><path class="cls-1" d="M77,36.06a7.57,7.57,0,0,0,.58-0.72A4.36,4.36,0,0,0,77,36.06Z" transform="translate(0.1 0.02)"/><polygon class="cls-1" points="196.2 128.05 197.89 127.21 196.62 127.51 196.2 128.05"/><path class="cls-1" d="M198.31,125l0.93,0.52,0.38-1.37A3.07,3.07,0,0,1,198.31,125Z" transform="translate(0.1 0.02)"/><path class="cls-1" d="M21.23,104.41H21a2.65,2.65,0,0,0,.7,1.47Z" transform="translate(0.1 0.02)"/><polygon class="cls-1" points="35.71 125.23 35.46 124.87 35.24 126.05 35.71 125.23"/><path class="cls-1" d="M49.06,141.64c-0.48-.72-1.24-1.42-1.73-2.15C48.58,140.92,48.32,142.48,49.06,141.64Z" transform="translate(0.1 0.02)"/><text class="cls-2" transform="translate(41.1 168.67)">E</text><text class="cls-3" transform="translate(140.49 121.08)">vendeez</text><g class="cls-4"><text class="cls-5" transform="translate(196.49 142.93) scale(0.96 1)">T</text><text class="cls-5" transform="translate(207.34 142.93) scale(0.96 1)">urning ideas into action</text></g></svg>