<?xml version="1.0" encoding="utf-8"?>
<!-- Generator: Adobe Illustrator 19.2.0, SVG Export Plug-In . SVG Version: 6.00 Build 0)  -->
<svg version="1.1" id="Layer_1" xmlns="http://www.w3.org/2000/svg" xmlns:xlink="http://www.w3.org/1999/xlink" x="0px" y="0px"
	 viewBox="0 0 402.7 230" style="enable-background:new 0 0 402.7 230;" xml:space="preserve">
<style type="text/css">
	.st0{fill:#FFFFFF;}
	.st1{font-family:'TimesNewRomanPSMT';}
	.st2{font-size:200px;}
	.st3{font-size:80px;}
</style>
<title>logo</title>
<path class="st0" d="M200.6,119.3c0.5,0.7,0.8,0.1,0.9,0.1C200.6,118.4,200.5,119.5,200.6,119.3z"/>
<polygon class="st0" points="191.4,109.1 191.7,109.2 190,107.9 "/>
<path class="st0" d="M183.8,98.8c-0.1,1.6,2.9,3.6,3.9,5.7v0.4l1.3,0.3C187.3,103.1,184.7,100.6,183.8,98.8z"/>
<path class="st0" d="M181.6,91.9c-0.1,0.6-1.2-1,0.8,1.4c0-0.1-0.1-0.2-0.1-0.3C182.2,92.8,182,92.5,181.6,91.9z"/>
<path class="st0" d="M182.4,93C183.2,94.1,182.2,92.1,182.4,93L182.4,93z"/>
<path class="st0" d="M178.5,88.1l1.4,1.2c0-0.4-0.9-1.8-0.4-1.4C178.2,86.6,178.2,87.1,178.5,88.1z"/>
<path class="st0" d="M176.8,87.2l0.7,0.6C177.4,87.5,177.2,87.3,176.8,87.2z"/>
<path class="st0" d="M178.9,89.2l-1.4-1.4c0,0.3-0.3,0.5,0.6,0.6C177.8,88.6,178.3,88.7,178.9,89.2z"/>
<path class="st0" d="M179.5,90.2c0.4,0.9,1,2.1-0.3,0.9C181.3,93.7,181.6,92.9,179.5,90.2z"/>
<path class="st0" d="M182.5,98.9l0.5,1.3l1,0.7C183.5,100.5,182.7,98.7,182.5,98.9z"/>
<path class="st0" d="M172.4,78.9c-0.3,0-0.1,0.8-0.3,1.1l1,0.9C172.8,80.2,172.1,79.1,172.4,78.9z"/>
<path class="st0" d="M172.1,80l-1.5-1.4C171.6,80.1,171.9,80.2,172.1,80z"/>
<polygon class="st0" points="175.7,87.7 178.3,89.8 175.3,87.2 "/>
<polygon class="st0" points="167.9,72.8 169,73.4 167.2,72.3 "/>
<path class="st0" d="M164.9,68.8c0.8,0.4-0.1-1.4,0.7-0.8c-0.8-0.9-1.7-1.7-2.7-2.4C163.7,66.6,164.5,67.6,164.9,68.8z"/>
<path class="st0" d="M161.4,64.5c0.5,0.4,0.9,0.8,1.4,1.1C162.4,65.2,161.9,64.8,161.4,64.5z"/>
<path class="st0" d="M168.7,75.9c0.1-0.6-0.1-1.2-0.4-1.6l-0.1,1L168.7,75.9z"/>
<path class="st0" d="M168.2,75.3L168.2,75.3l-1-1.4L168.2,75.3z"/>
<path class="st0" d="M168.8,76.1l-0.1-0.2C168.7,76,168.7,76.1,168.8,76.1z"/>
<path class="st0" d="M173.1,83.2c-1-0.7-2.7-2.4-1.8-0.2C172.2,83.3,171.7,82.1,173.1,83.2z"/>
<path class="st0" d="M168.7,77.3l1.1,1.8c0.1-0.1,0.1-0.6,0.6-0.2L168.7,77.3z"/>
<polygon class="st0" points="168,76.6 168.7,77.3 168.3,76.6 "/>
<path class="st0" d="M163.1,67.8c-0.8-0.6-1.5-1.4-2.1-2.2c0.6,1,1.3,2,2,3C163.2,68.6,163.8,68.8,163.1,67.8z"/>
<path class="st0" d="M165.5,71.4l-0.1-0.1C165.4,71.4,165.4,71.5,165.5,71.4z"/>
<path class="st0" d="M154.5,56.7v0.2h0.1L154.5,56.7z"/>
<path class="st0" d="M163,68.8c0.3,0.6,0.8,1.1,1.3,1.4c-0.5-0.5-0.9-1.1-1.4-1.7C162.8,68.6,162.8,68.6,163,68.8z"/>
<path class="st0" d="M159.4,62.2c0.2,0.5,0.4,1,0.6,1.5C160,63.2,159.7,62.7,159.4,62.2z"/>
<path class="st0" d="M165.4,71l0.1,0.1C165.4,70.7,165.4,70.8,165.4,71z"/>
<path class="st0" d="M165.4,71c-0.3-0.3-0.6-0.5-1-0.7c0.3,0.4,0.7,0.7,1.1,1.1C165.4,71.2,165.4,71.1,165.4,71z"/>
<path class="st0" d="M149.2,56.5c0.6-0.2,2.4,1.4,3.1,3.4c1.5,1.4,2.3-0.9,2.2-2.9c-0.3,0.1-0.4,0.3-1.9-1.2
	c0.2,0.8,2.1,4.1,0.6,3.1c-1.9-2-1.2-1.9-1.7-3.2c0.1,1.4-2.9-2.2-3.5-1l1.7,1.7C149.7,56.4,148.9,55.8,149.2,56.5z"/>
<path class="st0" d="M156.8,60.1l0.6,0.6c-0.5-0.9-0.9-1.8-1.1-2.8c-1.1-1-1.4-1.1-1.6-1l2.4,3.4L156.8,60.1z"/>
<path class="st0" d="M159.6,63.8c-0.9-0.1-2.3-1.6-2.2-0.2c1.5,2,1.5,1.1,2.6,2.1C157.5,62.6,161,66.5,159.6,63.8
	c0.5,0.6,0.9,1.1,1.4,1.7c-0.4-0.6-0.7-1.3-1-1.9v0.1l0,0c0,0.2,0,0.3,0,0.1l-0.1-0.1C159.8,63.9,159.7,63.9,159.6,63.8
	c-0.6-1,0-0.3,0.3,0c0,0,0.1,0,0.1,0l0,0l-2.7-3C158,61.9,158.8,62.9,159.6,63.8z"/>
<path class="st0" d="M168.9,82.1c0-0.1,0-0.1,0-0.2C168.8,81.7,168.7,81.6,168.9,82.1z"/>
<path class="st0" d="M168.3,80.5c0.5,0.2,0.8,0.6,1.1,1c0.3,0.8-0.3,0.2-0.4,0.3c0.5,0.4,1.6,1.3,0.8-0.3l-0.2-0.2
	c-0.8-1.4-1.4-3.6-1.1-3.4C168.2,78.8,168.1,79.6,168.3,80.5z"/>
<path class="st0" d="M163.7,72.2l-2.2-2.5l0.6,1.7l0.2-0.3C163.3,72.7,163.4,72.1,163.7,72.2z"/>
<polygon class="st0" points="154.5,56.2 155.4,56.2 153.4,55.2 "/>
<polygon class="st0" points="151.9,52.7 152.5,52.5 151.5,51.8 "/>
<path class="st0" d="M33.4,123.9l0.7,0.7C33.9,124.3,33.7,124.1,33.4,123.9z"/>
<path class="st0" d="M29.3,118.1h-0.3C29.2,118.3,29.4,118.3,29.3,118.1z"/>
<path class="st0" d="M73.4,30.6c-1.5,0.4-3.3,0.7-2.8,1.1l0.7,0.3C72,31.4,72.6,30.9,73.4,30.6z"/>
<path class="st0" d="M16.6,77.1l0.5-0.1l0.4-1.1L16.6,77.1z"/>
<path class="st0" d="M17.4,79.8l-1.8,0.8C16.2,80.4,16.8,80.1,17.4,79.8z"/>
<path class="st0" d="M57.1,154.9l1.2,0.5C57.2,153.9,57.4,154.8,57.1,154.9z"/>
<path class="st0" d="M125.3,16.9c-0.4-0.9-0.9-1.9-1.5-2.7C124.4,15.6,124.6,16.9,125.3,16.9z"/>
<path class="st0" d="M26.2,125.7c0.4,0.4,0.7,0.5,0.8,0.4C26.6,125.7,26.3,125.5,26.2,125.7z"/>
<path class="st0" d="M121.7,11.3c0.1,0.2,0.2,0.4,0.3,0.6c0.7,0.7,1.3,1.5,1.9,2.3C123.4,13.1,122.6,12.1,121.7,11.3z"/>
<path class="st0" d="M153.1,150.5c0.1,0,0.2-0.1,0.3-0.1S153.2,150.3,153.1,150.5z"/>
<path class="st0" d="M190.1,131.4c-0.3,0.3-0.8,0.7-1.3,1C189.3,132.1,189.7,131.8,190.1,131.4z"/>
<path class="st0" d="M141.7,38.5C142.3,39.2,141.9,38.5,141.7,38.5L141.7,38.5z"/>
<path class="st0" d="M142.3,43.6c-0.1-0.1-0.3-0.2-0.5-0.1C142,43.5,142.2,43.5,142.3,43.6z"/>
<path class="st0" d="M113,6.4L113,6.4C113.1,6.7,113.1,6.6,113,6.4z"/>
<path class="st0" d="M142.3,39.8c-0.2-0.4-0.3-0.7-0.5-1.1C141.9,39.1,142.1,39.4,142.3,39.8z"/>
<path class="st0" d="M142.5,39.4l0.4,0.7C143.1,40.1,143,40.1,142.5,39.4z"/>
<path class="st0" d="M140.9,37.4c0.3,0.4,0.6,0.8,0.8,1.3c-0.1-0.2-0.1-0.3,0-0.2L140.9,37.4z"/>
<path class="st0" d="M93.1,196.7l0.2-0.1C93.9,195.8,93.6,196.1,93.1,196.7z"/>
<path class="st0" d="M58,50.2C58,50.2,58,50.2,58,50.2L58,50.2L58,50.2z"/>
<path class="st0" d="M55.6,52.6c0.4-1.1,1.3-1.9,2.3-2.4l-2-0.9L55.6,52.6z"/>
<path class="st0" d="M43.7,137.5l-0.9-2.2c2.4,1.7,3.4,3.5,2.8,1.3c-1.8,0.9-5.5-7.2-7.4-6.2l-0.6-1.5c0.2,0.4,0.4,0.4,0.6,0.7
	c-1-3-2.5-0.9-4.6-4.2c-0.7-1.2-1-2.1-0.3-1.5l-2.2-2.1c-0.5-0.7-0.1-0.8,0.4,0l-2.8-3.6h0.1c-0.9-0.5-1.7-1.1-2.5-1.7
	c-0.4-1.1,0.5,0.3,0.6,0l-1.9-1.7c-0.2-1.1,1.5,0.2,2.4,1.7c0.2-3.1-1.6-1.4-3.7-6.2l1.6,1.8c0-1.9-1.4-3.2-2.4-5.8
	c0.1,0.7,1.7,5.4-0.3,3.5c-0.5-1-1.2-1.9-2.1-2.5c0.6-0.4-0.4-1.5-1.5-2.9l0.9-0.5c-1.4-1.4-1.7-1-2.7-1.7c-1.2-1.8-0.9-2.6-0.7-3.4
	c-1.9-2.9,0.5,2.6-2.1-0.6c-1.4-2.6-2.9-4-5.5-6.4c-0.9-1.8,0.7-0.1,0.5-0.8l-0.8-0.5l-0.3-0.2c-0.1,0-0.1,0-0.2,0H7.9
	C7.8,90.1,8,90,8.2,90c-0.3-0.1-0.6-0.2-0.8-0.1c-0.5,0-0.9-0.2-1.2-0.6c-0.6-0.2-0.9-0.7-0.8-1.3c0.7-0.3,1.4-0.5,1.9-0.7
	c0.5-0.2,0.8-0.5,1-1c0.5,0,0.2,0.6,0.6,0.8L8.9,87c0-0.1,0.1-0.1,0.1-0.2l0.4-0.5l0.7-0.7c0.4-0.4,0.7-0.7,0.9-1
	c0.5-0.6,0.9-1.2,2-2.6l2.6-1.2c-2.1,0.6-0.5-1.6,1-3.6c-0.8,0.2-1.5,0.3-1.9,0.4l2.7-2.6c0.4-0.1,0.4,0.4,0.1,1
	c0.2-0.2,0.3-0.4,0.4-0.6c1.3-0.5,1.1,0.4,0.6,1.4c-0.5,0.1-1,0.2-1.4,0.3c-0.4,1-0.7,2-0.2,2.4c0.2-0.3,0.5-0.7,0.8-0.9
	c-0.1,0.3-0.1,0.5,0,0.5c0.3-0.3,0.6-0.6,0.7-1l1.3,0.4L19.7,78l4.3-2.3c2.2-2.9,3.7-6,7.9-9.6c-0.6,1.4,0.5,1.2,1,2
	c-1.8,0.1-3.2,2.9-5.6,4.4c1.3-0.8,1.3-0.3,1,0.1l3.6-3.7c0.4,0.7,1.2-0.2,2.5-0.7c-1.7-0.6,2.5-3.1,3.9-4.7c0.4,0.3,0.3,1-1.8,2.4
	c2.9-0.7,1.9-3.6,4.6-4.4c-0.4,0.2-0.7,0.5-0.9,0.9c0.9-1.2,4-3,3.5-2.2l-0.5,0.4c3.4-2.3,10.1-7.4,9.8-8.8c0.3,0.6,0.4,1.3,0.4,1.9
	l3.4-7.8c0.1,1.3,3.7,1.9,1.3,4.4c1.3-0.6,2.4-1.5,3.4-2.6c-0.6,0.3-2.3-0.3-1.6-0.9c2.7-0.5,1.8-0.5,4.9-1.5
	c-0.9,0.4-1.1-1.6,0.2-2.5c0,0.4,1.1,1.3,0.8,1.8l2.2-3.7c-0.6,0.8,0.7,1.3,1.7,1.1c-0.5,0,2.8-2,3.5-2.7l-1.6,0.7
	c3.7-2.4,2.1-4.5,5.7-7c-0.2,0.6,0.2,2.5,2.1,1.4c0.3-1.3,1.2-6,3.9-8.9h0.9l2.1-2.2c-1.4,3.5-3,6.8-5,10c1.6-0.7,0.7,0.2,2.7-1.3
	c1-0.1-0.7,1.4-1.3,1.8l4.8-3.2c-0.8-0.7,3-3.4,2.3-4l-4.5,4.4c-0.8-0.7,1.2-4.5,4.6-6.7c1.1-0.3,0.4,1.9,0.7,2.1
	c0.9-1.2,1.9-2.1,3.2-2.9l-1.1,1.5c2.1-1,2.2-3.3,5-4.1c0.8-0.5,3-0.6,2.8-1.2c-1.9,0-4.3-2.7-4-4c1.9-0.9,3.9-1.6,5.9-2.2
	c1.8-0.2-0.6,3.1,0.9,3c0.1-0.5,0.3-1,0.6-1.3c0.9-0.4,0.2,0.9,1.8-0.4c-0.3-1,3.6-2.5,0.3-1.3c0.5-0.5,1.1-1,1.8-1.3
	c0.3-0.1,0.5-0.3,0.9-0.5c0.3-0.2,0.7-0.4,1-0.6c-0.4-0.1-0.4-0.8,0.2-1.9c0.7-1.2,1.6-2.4,2.6-3.3c-0.1,0.2,0,0.5,0.2,0.6l0.1,0.3
	c1.3,1.8,2.1,3.2,2.9,4.5s1.7,2.7,2.9,4.4c0,0.4,0.9,2.2,0.1,1.8c0.7,0.4,1.3,0.9,1.8,1.6c0.7,2.5-1.8-2.2-1.5,0
	c0.6-0.2,2.6,2.1,3.9,3.3c0.4-1-2.3-3.4-3.6-4.6c1-0.8,3.9,1,6.9,4c2.2,2.5,0.2,1.7,0.7,2c3.5,5.2,5,3,7.3,7.8
	c0.6,2.1-1.2,1-1.4,1.7c-1.9-2-2.1-3.7-3.2-5.2l1,2.1c-1-0.8-1.8-1.7-2.4-2.8c0.5,1.8,6.2,8.7,8.5,13c0.7,0.5,1.8,1.6,1.7,0.8
	l-1-1.2c-0.3-1.5,2.4,1.8,1.5,0.1c2,1.5,3.7,3.3,5,5.4l-0.4,1c0.2-0.2-0.7-1.9-1.4-2.4c1,0.7,1.6,4.3,3.4,4.7l-0.7-2
	c1.6,1.4,3.9,2.9,5.2,5.1c0-1.5-0.4-0.4-0.7-2.5c-0.1,2.1-3.9-5.3-3.5-2.5c-0.1-2.2-1.5-2.9-2.1-5.5c-0.2,0.2,0,1-1.1-0.8
	c-0.2-0.1-0.3-0.1-0.5-0.2l-0.1-0.1V40c-0.1,0-0.1,0,0,0c0.2,0.4,0.3,0.8,0.3,1.2c-1.2-0.4-3.2-3.2-4.2-4c-0.6-1.1,0.6,0.2,0.4-0.5
	l-1.5-1.1c0.4-0.5-1.1-3.4,1-1.2l-1.5-2.3c-0.7-1.6-1.6-3.1-2.9-4.3c-0.6-1.1-2.5-2.2-1.4-1.6l-2.9-3.2l0.1-0.1
	c-2.4-3.4-6-6.3-7.9-10.9c-0.5-0.5-1-1-1.5-1.7c-0.3-0.3-0.5-0.7-0.8-1.1l-0.5-0.7l-0.8-1.1V6.8V6.2c-1.2-1.4-2.9-4.1-4.4-6.3
	c-1,0.6-1.9,1.4-2.8,2.3c-1.2,0.3-2.4,0.8-3.4,1.6c-0.7,0.5-1.5,1-2.4,1.6c-0.5,0.3-0.9,0.7-1.4,1c-1.9,1.5-3.8,3.1-5.1,4l0.4,0.7
	c-1.9,1.4-3.7,2.9-5.4,4.6l0.5,0.4c-1.6,1.8-5.2,3.2-8.1,5.5c0.4-0.5,0.9-0.9,1.5-1.1c-4.5,1.4-6.9,6.4-10.8,8
	c-0.5,0.6-1.2,1.1-2,1.4c0.1-0.1,0.1-0.1,0.2-0.2L74.7,30c-0.4,0.2-0.9,0.3-1.3,0.5c0.4-0.1,0.8-0.2,1.2-0.4
	c-0.8,0.6-1.6,1.3-2.4,2.1l-0.8-0.3l-0.2,0.2c-1.1,0.5-0.5,0.8,0.3,0.9c-0.4,0.4-0.7,0.8-1,1.3c-1.4-0.4-2.2,2.1-4,1.9
	c-0.3,0.9-4.4,3.8-4.1,5.2c-0.1-0.1-0.4,0,0-0.4c-1.1,0.5-2.2,1.3-3,2.3l-1-0.4l-1.5,2.7c-1.7,0.6-2.5,0.7-1.5-0.9
	c-2.7,3.3-2.4,2.3-4.6,5.2l-0.2-0.6c-1,0.8-2.1,2.6-3,2.6c-2.9,0.7-11.2,8-17.6,11.4c2.1,0.6-3.1,1.3-2.6,2.6
	c-0.6-0.1-1.5,0.3-0.8-0.7c-2.7,2.5-4.8,2.7-6.2,5.1c-0.6-0.1,0.3-1-0.2-0.9c-0.3,0.5-0.7,0.8-1.2,1c-0.4,0,0.2-0.6,0.6-1.1
	c-3,2.3-2.5,3.5-2,4.6c-1.9,0.7-2.6,1.3-3.2,2.7c-0.8,0.1-1.9,0.4-0.1-1.1c-1.1,0.7-6.8,4.3-6.3,5.1c-0.7,0.3-1.3,0.7-1.7,1.3
	l-3.1,2.2c-0.9,0.6-1.7,1.3-3.2,2.4L0.9,86c0.1,0.5-0.2,0.9-0.6,1.1c0.7,0.8,1,1.9,2.2,3.4H2.5c0.4,0.7,0.7,1.3,1,1.8l0.4,0.6
	l0.3,0.4c0.2,0.3,0.5,0.6,0.7,0.9c0.4,0.4,0.8,0.8,2,3.2l0.4-0.7c1.5-0.5,2,4.3,4.3,6.4l-0.2-1.1c1.4,1,1,5,1.9,6.4
	c0.1,0.4-0.5-0.3-0.9-0.7c1.9,4.1,1.1-0.1,3.2,2.4c-0.1,0.8-1.5,0.1-0.3,2c0.3,1.1,5.1,4.1,6.1,7.1c-0.1-0.8-0.1-1.5,1-0.5
	c1.5,1.8,2.5,5.9,4.7,6.9c0.1,0.2,0.1,0.4,0,0.5c1.3,1.2,3.8,4.3,5,4.8c-1,2.8,7.5,8.1,5.6,9.5l3.3,4.3h-0.3
	c1.9,2.9,3.1,3.6,4.3,4.2c0.4,0.7-0.2,0.4-0.3,0.4c2.6,4.4,3,4.7,6.4,7.5l-0.3,0.8c1,0.7,3.4,6.6,7.1,10.1c-0.2,0-0.4-0.1-0.6-0.2
	c4,4,6.3,12,9.7,12.1l2.7,2.6c-2.7-4,1.4-0.1,0.6-2c1.2,1.4,2.2,4.4,0.7,2.6l-0.1-0.4c-1.6,0.1,3.1,5.1,2.3,5.5
	c2.1,2.8,4.1,5.7,6.1,8.6l3.1,4.6l4.5,6.4l4.1-2.9l3.8-2.7l-0.7-0.1c-0.2,0-0.4-0.1-0.5-0.1h-0.3l2.6-1.8c0.8-0.3,1.4,0-0.4,1.3
	c1.3-0.2,2.7-2.6,2.6-2.8c3.7-2.2-0.6,2,0.5,1.3l1.4-1.1l-0.4,0.1c0.9-1.2,0.7-1.7,2.9-3.2c1.5-0.8,1.1,0,1.6-0.3
	c0,0.1,0.2,0,0.8-0.6l3.2-2.2l-1.8,0.2c1.1-1.4,3-2.1,0.9-1.9c3-0.3,12-8.1,13.5-8.7c1.7-1.9,3.7-3.6,5.9-5
	c-0.7,0.3-1.6-0.2,0.5-1.6c0.4,2.2,4.3-2,6.8-2.1c-2,0.3,5.7-4.5,2.5-3.9c1.8-1.1,0.5,0.5,2.1,0c3.6-3.6,9.3-6.2,14.1-10.1
	c-0.1-0.3-1.2,0-0.3-1.1l3.4-0.9c0.9-0.8,0-1.9,2.4-2.5c-0.4,0-1,0-0.4-0.5c10.6-6.2,19.5-15.6,30.9-21c-1.7,0.6-0.8-0.1,0.2-0.9
	c-0.7,0.4-0.4-0.5-0.7-0.7l4.8-2.3c0.2-1.4,4.4-3.4,4.3-4.4l-1.2,1.1c1.1-2.2-3.9-0.2-4.5-1.5c-1.2,2.5-6.3,2.3-8.5,6.1
	c-0.9,0.3,0.3-0.8-0.2-0.8c-0.5,1.1-1.4,1.9-3.4,3.1l0.1-0.3c-5.1,3.9-7.6,5-13.7,9l0.9,0.3c-0.7,0.5-1.5,0.9-2.4,1.1
	c-0.8,1.9,3.5-2.5,2.9-0.6c-2.5,0-8.8,6.4-10.9,5.9c-1.9,1.4,1,0.3-0.9,1.6h-0.8l-0.1,0.8c-1.3,0.9-2.3,0.9-2.5,0.6
	c0.4-0.3,0.8-0.6,1.1-1c-1.9,0.8-4.5,3.5-5.1,3.8l2-1.1c-5,4.2-11.7,8.4-16.2,12.8h0.6c-3.5,3.3-3.3,2-7.4,5.3l0.1-0.2
	c-0.8,1-1.8,1.9-2.9,2.7c0.8-1.1-2.5,0.9-1.3-0.5c-3.8,3.6-1.8,1.9-3.8,5h-1c-0.6,1.2-1.5,2.3-2.6,3c1.5-1.7-1.9,0.3-0.3-1.6
	c-5.2,2.3-5.9,5.8-9,5.9c-1.1,2.7,4.4-2.1,3.4-1c1.3-0.3-1,2.2-2.5,3.1s-3.6,0.2-7.1,2.8c0.4-0.3,0.3-0.4,0.7-0.6
	c-1.6,0.7-2.3,2.4-4.3,3c-0.4,1.4-2.2,1.5-1.7,2.7l3.1-2.6c-1.7,1.6-2.6,4-6,5.7c0.4-0.7,0.8-1.3,1.3-1.9c-0.5,0.2-1,0.5-1.4,0.9
	c-0.3,0.4-0.8,0.6-1.2,0.8c0-0.1,0-0.3,0-0.4c0.1-0.2,0.2-0.4,0.3-0.5c0.5-0.5,1-0.9,1.5-1.3c1.3-0.8,2.4-1.8,3.3-3
	c-1.3,0.3-3.3,3.5-3,1.7c-0.2,1.2-1.1,1.8-2.2,2.4c-0.8,0.3-1.4,0.9-1.7,1.7v-0.9c-0.2,0.4-0.5,0.8-0.8,1.1l-0.1-0.1l0.1-0.1
	c0.2-0.4,0.4-0.9,0.5-1.4c-0.1,0.2-0.2,0.4-0.4,0.6c-0.2-0.4-0.4-0.8-0.5-1.2c0-0.3-0.1-0.6-0.4-0.8c0.3,0.3,0.4,0.7,0.2,1.1
	c-0.3,0.3-0.4,0.7-0.3,1.1c-0.5-0.3-0.9-0.8-1.1-1.3c-0.2-0.5-0.4-1.1-0.4-1.7c-0.1-1.1-0.3-2.3-2.4-4.9c0.6,0.7,1.7,3,0.6,2.1
	c-0.7-1.1-1.2-2.3-1.6-3.5c-2.8-3.5-0.2,1-1.7-0.3c-0.2-1.7-1.6-1.5-3-3l0.6-0.4c-2.6-4.4-2-0.2-4.3-4.2l2,1l-1.6-1.8l1-0.1
	c-1.5-1.3-2.8-2.9-3.7-4.7c-0.1,0.8-1.3,0.5-2.6-1.3c-0.6-1.5,1.1,0.3-0.9-2.2c1,0.2,1.8,1.1,2,2.1c0.3,0,0.8,0.3,1.1,0.3
	c-0.6-1.6-2.4-3.4-3.1-4.3c0.2,0.3,0.4,0.7,0.6,1.1l-3.5-3.1c-0.2-0.8,0.3-0.4,0.8-0.1c-0.6-0.7-1.3-1-2.1-2.1
	c0.7-0.1,1.1-0.5,2.5,0.9l-3.1-3.2c0-0.4-0.8-2.2-0.3-1.9c-1.2-2.2-4.5-4.1-6-7c-0.4-0.2-0.7-0.5-1-0.8c-1.7-2.5-2.7-5.1-5.5-7.6
	l-0.4-2.3c-1.9-2.1,0.6,3-2.5-0.5c-2.2-2.5,0-1.5-0.5-2.6c-1.4-1-4-2.7-5.1-5.7C42.7,136.2,43.2,136.8,43.7,137.5z M22.7,109.7
	c0.5,0.4,1.7,1.3,1.6,1.9C23.2,111.5,23.2,110.8,22.7,109.7L22.7,109.7z M21.6,75.1c-0.5,0.6-1.1,1-1.8,1.1
	C20.3,75.8,20.9,75.4,21.6,75.1L21.6,75.1z M135.3,30.6L135.3,30.6C134.5,29.2,134.8,29.7,135.3,30.6L135.3,30.6z M136.9,33.3
	c0.3,0.2,0.3,0.1,0.3-0.1c-0.5-0.3-0.9-0.8-1.1-1.3C136.1,32.5,136.4,33,136.9,33.3L136.9,33.3z M103.9,194.8l-0.6,0.2
	C104.3,194,104.1,194.4,103.9,194.8z"/>
<path class="st0" d="M17.3,79.5c-0.2,0-0.3,0-0.5-0.1C16.7,79.6,16.8,79.7,17.3,79.5z"/>
<path class="st0" d="M56.8,154.8L56.8,154.8c0.1,0.1,0.2,0.1,0.2,0.1L56.8,154.8z"/>
<path class="st0" d="M104.8,15.8c-0.4,0.2-0.8,0.4-1.2,0.4C103.6,16.4,103.9,16.3,104.8,15.8z"/>
<path class="st0" d="M147.7,46l-1.3-1.5c0.4,0.5,0.7,1,0.9,1.6C147.3,45.9,147.3,45.5,147.7,46z"/>
<path class="st0" d="M154.4,62.6c0.2,0.2,0.4,0.5,0.6,0.7l0.2-0.3C154.4,62.1,153.7,61.5,154.4,62.6z"/>
<path class="st0" d="M146.8,48.9c-0.4,0.5,0.5,1.4,1.4,2.4c-0.1-0.1-0.1-0.1-0.1-0.2C149.1,51,147.9,49.9,146.8,48.9z"/>
<path class="st0" d="M148.5,51.6c0.3,0.3,0.5,0.7,0.8,1C149.6,52.5,149,52.1,148.5,51.6z"/>
<path class="st0" d="M139.5,36.3c0.3,0.6,0.9-0.1,0.9,0.3C141.5,36.8,137.1,33.6,139.5,36.3z"/>
<polygon class="st0" points="145.9,51 146.2,50.1 145.2,49.9 "/>
<path class="st0" d="M139.8,41.7l1.2,1.9c0.1-0.1,0.3,0.1,0.6,0.3C140.7,42.9,139.9,41.6,139.8,41.7z"/>
<path class="st0" d="M141.5,44c0.3,0.5,0.7,1,1.2,1.4C142.3,44.9,141.9,44.4,141.5,44z"/>
<polygon class="st0" points="143.9,48.7 143.6,48 142.7,46.7 "/>
<path class="st0" d="M125.6,22.2l-1.6-1.8c-0.4,0-0.1,0.6,0.5,1.3C125,22.1,125.7,22.7,125.6,22.2z"/>
<path class="st0" d="M128.4,29.4c-0.2-0.4-0.2-0.8-0.2-1.2l-0.8,0.5L128.4,29.4z"/>
<path class="st0" d="M123.9,23.8c-0.4,0-2.7-2.4-0.8,0C123.5,23.9,125.1,25.7,123.9,23.8z"/>
<polygon class="st0" points="100.2,16 100.7,15.6 99.7,14.4 "/>
<path class="st0" d="M76.2,38.1c2.6-1.4,0-1.2,2.4-2.4c0.3-0.7-1.9,1-1.6,0.3C75.8,37.4,74.9,37.8,76.2,38.1z"/>
<path class="st0" d="M77,36.1c0.2-0.2,0.4-0.4,0.6-0.7C77.4,35.6,77.2,35.8,77,36.1z"/>
<polygon class="st0" points="196.1,128 197.8,127.2 196.5,127.5 "/>
<path class="st0" d="M198.3,125l0.9,0.5l0.4-1.4C199.3,124.5,198.8,124.8,198.3,125z"/>
<path class="st0" d="M21.2,104.4H21c0.1,0.6,0.3,1.1,0.7,1.5L21.2,104.4z"/>
<polygon class="st0" points="35.6,125.2 35.4,124.8 35.1,126 "/>
<path class="st0" d="M49.1,141.6c-0.5-0.7-1.2-1.4-1.7-2.1C48.6,140.9,48.3,142.5,49.1,141.6z"/>
<text transform="matrix(1 0 0 1 41 168.65)" class="st0 st1 st2">E</text>
<text transform="matrix(1 0 0 1 140.39 121.06)" class="st0 st1 st3">vendeez</text>
</svg>
